<?xml version="1.0" standalone="no"?>
<!DOCTYPE svg PUBLIC "-//W3C//DTD SVG 20010904//EN"
 "http://www.w3.org/TR/2001/REC-SVG-20010904/DTD/svg10.dtd">
<svg version="1.0" xmlns="http://www.w3.org/2000/svg"
 width="30.000000pt" height="30.000000pt" viewBox="0 0 30.000000 30.000000"
 preserveAspectRatio="xMidYMid meet">
<metadata>
Created by potrace 1.15, written by Peter Selinger 2001-2017
</metadata>
<g transform="translate(0.000000,30.000000) scale(0.100000,-0.100000)"
fill="#000000" stroke="none">
<path d="M122 278 c-7 -7 -12 -42 -12 -85 0 -66 -2 -73 -19 -73 -11 0 -23 -5
-27 -11 -7 -12 63 -89 81 -89 15 0 85 73 85 88 0 7 -11 12 -25 12 -25 0 -25 1
-25 79 0 63 -3 80 -16 85 -22 8 -28 8 -42 -6z"/>
</g>
</svg>
